<svg width="100" height="100" viewBox="0 0 100 100" fill="none" xmlns="http://www.w3.org/2000/svg">
<path d="M38.4375 56.3021L54.4792 72.3437C55.7639 73.6285 56.4149 75.1389 56.4323 76.875C56.4497 78.6111 55.816 80.1215 54.5313 81.4062C53.2465 82.6562 51.7361 83.2726 50 83.2552C48.2639 83.2378 46.7535 82.5868 45.4688 81.3021L18.6979 54.5312C18.1076 53.941 17.6302 53.2378 17.2656 52.4219C16.901 51.6059 16.7188 50.7986 16.7188 50C16.7188 49.2014 16.901 48.3941 17.2656 47.5781C17.6302 46.7621 18.1076 46.059 18.6979 45.4687L45.5729 18.5937C46.8924 17.2743 48.3941 16.6146 50.0781 16.6146C51.7622 16.6146 53.2465 17.2743 54.5313 18.5937C55.816 19.8785 56.4583 21.3802 56.4583 23.0989C56.4583 24.8177 55.816 26.3194 54.5313 27.6041L38.4375 43.6979H79.5313C81.2326 43.6979 82.7083 44.3229 83.9583 45.5729C85.2083 46.8229 85.8333 48.2986 85.8333 50C85.8333 51.7014 85.2083 53.1771 83.9583 54.4271C82.7083 55.6771 81.2326 56.3021 79.5313 56.3021H38.4375Z" fill="white"/>
</svg>
