<svg width="200" height="200" viewBox="0 0 200 200" fill="none" xmlns="http://www.w3.org/2000/svg">
<rect x="31.3241" y="117.033" width="75" height="26" rx="13" transform="rotate(-45 31.3241 117.033)" fill="white"/>
<rect x="84.3571" y="135.418" width="75" height="26" rx="13" transform="rotate(-135 84.3571 135.418)" fill="white"/>
<path d="M160.375 158.667H124.021C120.254 158.667 117.142 157.406 114.685 154.883C112.228 152.361 111 149.219 111 145.456C111 141.694 112.263 138.545 114.79 136.01C117.316 133.476 120.462 132.208 124.229 132.208H160.167V113.562H132.354C128.587 113.562 125.476 112.301 123.019 109.779C120.562 107.257 119.333 104.115 119.333 100.352C119.333 96.5896 120.597 93.441 123.123 90.9062C125.649 88.3715 128.796 87.1042 132.562 87.1042H160.167V68.4583H124.021C120.254 68.4583 117.142 67.1972 114.685 64.675C112.228 62.1528 111 59.0104 111 55.2479C111 51.4854 112.263 48.3368 114.79 45.8021C117.316 43.2674 120.462 42 124.229 42H160.375C167.771 42 173.995 44.5722 179.048 49.7167C184.099 54.8611 186.625 61.1083 186.625 68.4583V83.875C186.625 87.6139 185.65 91.0139 183.7 94.075C181.75 97.1361 178.975 99.2222 175.375 100.333C178.975 101.444 181.75 103.531 183.7 106.592C185.65 109.653 186.625 113.053 186.625 116.792V132.208C186.625 139.558 184.099 145.806 179.048 150.95C173.995 156.094 167.771 158.667 160.375 158.667Z" fill="white"/>
</svg>
