<svg width="200" height="200" viewBox="0 0 200 200" fill="none" xmlns="http://www.w3.org/2000/svg">
<path d="M148.507 158.667C144.744 158.667 141.596 157.403 139.061 154.877C136.526 152.351 135.259 149.204 135.259 145.438V68.4583H126.696C122.929 68.4583 119.783 67.1972 117.257 64.675C114.73 62.1528 113.467 59.0104 113.467 55.2479C113.467 51.4854 114.73 48.3368 117.257 45.8021C119.783 43.2674 122.929 42 126.696 42H136.509C143.584 42 149.554 44.4326 154.419 49.2979C159.284 54.1632 161.717 60.1333 161.717 67.2083V145.438C161.717 149.204 160.456 152.351 157.934 154.877C155.411 157.403 152.269 158.667 148.507 158.667Z" fill="white"/>
<rect x="38" y="86.7089" width="75" height="26" rx="13" fill="white"/>
<rect x="62.5" y="137.209" width="75" height="26" rx="13" transform="rotate(-90 62.5 137.209)" fill="white"/>
</svg>
