<svg width="200" height="200" viewBox="0 0 200 200" fill="none" xmlns="http://www.w3.org/2000/svg">
<rect x="7" y="87" width="74" height="26" rx="13" fill="white"/>
<rect x="31" y="57" width="26" height="26" rx="13" fill="white"/>
<rect x="31" y="117" width="26" height="26" rx="13" fill="white"/>
<path d="M161.298 165C157.206 165 153.726 163.574 150.859 160.721C147.994 157.867 146.561 154.402 146.561 150.327V116H113.018C108.994 116 105.485 114.574 102.491 111.721C99.4971 108.867 98 105.402 98 101.327V48.6731C98 44.5963 99.4971 41.1316 102.491 38.2789C105.485 35.4263 108.994 34 113.018 34C117.041 34 120.503 35.4263 123.404 38.2789C126.304 41.1316 127.754 44.5963 127.754 48.6731L127.754 86.3743H146.561L146.561 48.6731C146.561 44.5963 147.994 41.1316 150.859 38.2789C153.726 35.4263 157.206 34 161.298 34C165.393 34 168.873 35.4263 171.738 38.2789C174.603 41.1316 176.035 44.5963 176.035 48.6731L176.035 86.3743H179.263C183.358 86.3743 186.837 87.8006 189.702 90.6533C192.567 93.5059 194 96.9707 194 101.047C194 105.053 192.567 108.547 189.702 111.528C186.837 114.509 183.358 116 179.263 116H176.035V150.327C176.035 154.402 174.603 157.867 171.738 160.721C168.872 163.574 165.393 165 161.298 165Z" fill="white"/>
</svg>
