<svg width="100" height="100" viewBox="0 0 100 100" fill="none" xmlns="http://www.w3.org/2000/svg">
<path d="M39.1721 56.0143L67.832 27.2757C69.3381 25.7586 71.1347 25 73.2218 25C75.3089 25 77.127 25.7802 78.6762 27.3407C80.2254 28.9012 81 30.7217 81 32.8023C81 34.883 80.2254 36.7035 78.6762 38.264L44.7879 72.5943C43.1957 74.1981 41.3238 75 39.1721 75C37.0205 75 35.1486 74.1981 33.5564 72.5943L20.2592 59.0702C18.7531 57.5531 18 55.7434 18 53.6411C18 51.5388 18.7746 49.7074 20.3238 48.1469C21.873 46.5865 23.6803 45.8062 25.7459 45.8062C27.8115 45.8062 29.6189 46.5865 31.168 48.1469L39.1721 56.0143Z" fill="white"/>
</svg>
