<svg width="100" height="100" viewBox="0 0 100 100" fill="none" xmlns="http://www.w3.org/2000/svg">
<path d="M35.2459 58.0403L76.1885 17.2315C78.3402 15.0772 80.9068 14 83.8883 14C86.8699 14 89.4672 15.1079 91.6803 17.3238C93.8934 19.5397 95 22.1248 95 25.0793C95 28.0338 93.8934 30.619 91.6803 32.8349L43.2684 81.5839C40.9939 83.8613 38.3197 85 35.2459 85C32.1721 85 29.498 83.8613 27.2234 81.5839L8.22746 62.3797C6.07582 60.2254 5 57.6556 5 54.6704C5 51.6851 6.10656 49.0845 8.31967 46.8687C10.5328 44.6528 13.1148 43.5449 16.0656 43.5449C19.0164 43.5449 21.5984 44.6528 23.8115 46.8687L35.2459 58.0403Z" fill="white"/>
</svg>
