<svg width="100" height="100" viewBox="0 0 100 100" fill="none" xmlns="http://www.w3.org/2000/svg">
<path d="M50.0608 60.7219L37.9355 72.7506C36.47 74.2087 34.6991 74.9579 32.6229 74.9984C30.5466 75.0389 28.7356 74.2897 27.1898 72.7506C25.7299 71.2926 25 69.5106 25 67.4045C25 65.2985 25.7299 63.5164 27.1898 62.0584L39.2336 49.9081L27.1898 37.9194C25.7299 36.4557 25 34.6668 25 32.5526C25 30.4385 25.7299 28.6499 27.1898 27.1871C28.6496 25.729 30.4339 25 32.5426 25C34.6513 25 36.4355 25.729 37.8954 27.1871L50.0608 39.2158L62.0645 27.1871C63.53 25.729 65.3212 25 67.438 25C69.5547 25 71.3455 25.729 72.8102 27.1871C74.2701 28.6451 75 30.4271 75 32.5332C75 34.6392 74.2701 36.4213 72.8102 37.8793L60.7664 49.9081L72.8102 62.0183C74.2701 63.482 75 65.2709 75 67.3851C75 69.4992 74.2701 71.2877 72.8102 72.7506C71.3504 74.2087 69.5661 74.9377 67.4574 74.9377C65.3487 74.9377 63.5645 74.2087 62.1046 72.7506L50.0608 60.7219Z" fill="white"/>
</svg>
