<svg width="100" height="100" viewBox="0 0 100 100" fill="none" xmlns="http://www.w3.org/2000/svg">
<path d="M49.5912 65.5828L31.4033 83.626C29.205 85.813 26.5487 86.9369 23.4343 86.9977C20.32 87.0584 17.6034 85.9345 15.2847 83.626C13.0949 81.4389 12 78.7658 12 75.6068C12 72.4477 13.0949 69.7746 15.2847 67.5876L33.3504 49.3621L15.2847 31.3791C13.0949 29.1836 12 26.5002 12 23.3289C12 20.1577 13.0949 17.4749 15.2847 15.2806C17.4745 13.0935 20.1509 12 23.3139 12C26.4769 12 29.1533 13.0935 31.3431 15.2806L49.5912 33.3238L67.5967 15.2806C69.795 13.0935 72.4818 12 75.6569 12C78.8321 12 81.5182 13.0935 83.7153 15.2806C85.9051 17.4676 87 20.1407 87 23.2998C87 26.4588 85.9051 29.1319 83.7153 31.319L65.6496 49.3621L83.7153 67.5274C85.9051 69.723 87 72.4064 87 75.5776C87 78.7488 85.9051 81.4316 83.7153 83.626C81.5255 85.813 78.8491 86.9065 75.6861 86.9065C72.5231 86.9065 69.8467 85.813 67.6569 83.626L49.5912 65.5828Z" fill="white"/>
</svg>
