<svg width="100" height="100" viewBox="0 0 100 100" fill="none" xmlns="http://www.w3.org/2000/svg">
<path d="M33.3333 86.875C31.5277 86.875 29.9826 86.2327 28.6978 84.9479C27.4131 83.6632 26.7708 82.1181 26.7708 80.3125C26.7708 78.507 27.4131 76.9618 28.6978 75.6771C29.9826 74.3924 31.5277 73.75 33.3333 73.75H66.6666C68.4721 73.75 70.0173 74.3924 71.302 75.6771C72.5867 76.9618 73.2291 78.507 73.2291 80.3125C73.2291 82.1181 72.5867 83.6632 71.302 84.9479C70.0173 86.2327 68.4721 86.875 66.6666 86.875H33.3333ZM49.9999 65.4167C48.1944 65.4167 46.6492 64.7743 45.3645 63.4896C44.0798 62.2049 43.4374 60.6597 43.4374 58.8542V33.8542L39.5833 37.7084C38.3333 38.9584 36.8055 39.5834 34.9999 39.5834C33.1944 39.5834 31.6666 38.9584 30.4166 37.7084C29.1666 36.4584 28.5416 34.9306 28.5416 33.125C28.5416 31.3195 29.1666 29.7917 30.4166 28.5417L45.3124 13.6459C45.9374 13.0209 46.6666 12.5347 47.4999 12.1875C48.3333 11.8403 49.1666 11.6667 49.9999 11.6667C50.8333 11.6667 51.6666 11.8403 52.4999 12.1875C53.3333 12.5347 54.0624 13.0209 54.6874 13.6459L69.5833 28.5417C70.8333 29.7917 71.4583 31.3195 71.4583 33.125C71.4583 34.9306 70.8333 36.4584 69.5833 37.7084C68.3333 38.9584 66.8055 39.5834 64.9999 39.5834C63.1944 39.5834 61.6666 38.9584 60.4166 37.7084L56.5624 33.8542V58.8542C56.5624 60.6597 55.9201 62.2049 54.6353 63.4896C53.3506 64.7743 51.8055 65.4167 49.9999 65.4167Z" fill="white"/>
</svg>
