<svg width="100" height="100" viewBox="0 0 100 100" fill="none" xmlns="http://www.w3.org/2000/svg">
<path d="M26.25 94.8958C22.6403 94.8958 19.5503 93.6107 16.9802 91.0406C14.4101 88.4698 13.125 85.3798 13.125 81.7708V42.6041C13.125 38.9951 14.4101 35.9052 16.9802 33.3344C19.5503 30.7642 22.6403 29.4791 26.25 29.4791H27.6042V24.1666C27.6042 17.8472 29.7743 12.4826 34.1146 8.0729C38.4549 3.66317 43.75 1.45831 50 1.45831C56.25 1.45831 61.5451 3.66317 65.8854 8.0729C70.2257 12.4826 72.3958 17.8472 72.3958 24.1666V29.4791H73.75C77.359 29.4791 80.449 30.7642 83.0198 33.3344C85.5899 35.9052 86.875 38.9951 86.875 42.6041V81.7708C86.875 85.3798 85.5899 88.4698 83.0198 91.0406C80.449 93.6107 77.359 94.8958 73.75 94.8958H26.25ZM50 70.5208C52.2917 70.5208 54.2535 69.7048 55.8854 68.0729C57.5174 66.441 58.3333 64.4791 58.3333 62.1875C58.3333 59.8958 57.5174 57.934 55.8854 56.3021C54.2535 54.6701 52.2917 53.8541 50 53.8541C47.7083 53.8541 45.7465 54.6701 44.1146 56.3021C42.4826 57.934 41.6667 59.8958 41.6667 62.1875C41.6667 64.4791 42.4826 66.441 44.1146 68.0729C45.7465 69.7048 47.7083 70.5208 50 70.5208ZM40.7292 29.4791H59.2708V24.1666C59.2708 21.5048 58.3854 19.242 56.6146 17.3781C54.8438 15.5149 52.6389 14.5833 50 14.5833C47.3611 14.5833 45.1563 15.5149 43.3854 17.3781C41.6146 19.242 40.7292 21.5048 40.7292 24.1666V29.4791Z" fill="white"/>
</svg>
