<svg width="100" height="100" viewBox="0 0 100 100" fill="none" xmlns="http://www.w3.org/2000/svg">
<path d="M50 48.3333C44.4792 48.3333 39.8177 46.4323 36.0156 42.6302C32.2135 38.8281 30.3125 34.1667 30.3125 28.6458C30.3125 23.125 32.2135 18.4809 36.0156 14.7135C39.8177 10.9462 44.4792 9.0625 50 9.0625C55.5208 9.0625 60.1823 10.9462 63.9844 14.7135C67.7865 18.4809 69.6875 23.125 69.6875 28.6458C69.6875 34.1667 67.7865 38.8281 63.9844 42.6302C60.1823 46.4323 55.5208 48.3333 50 48.3333ZM14.0625 74.6875V72.4969C14.0625 69.5823 14.8177 66.901 16.3281 64.4531C17.8385 62.0052 19.8965 60.1385 22.5021 58.8531C26.9451 56.701 31.467 55.0608 36.0677 53.9323C40.6684 52.8038 45.3125 52.2396 50 52.2396C54.8264 52.2396 59.5399 52.7865 64.1406 53.8802C68.7413 54.974 73.1937 56.5969 77.4979 58.749C80.1035 60.0344 82.1615 61.8837 83.6719 64.2969C85.1823 66.7101 85.9375 69.4434 85.9375 72.4969V74.6875C85.9375 78.225 84.7212 81.2101 82.2885 83.6427C79.8559 86.0753 76.8708 87.2917 73.3333 87.2917H26.6667C23.1292 87.2917 20.1441 86.0753 17.7115 83.6427C15.2788 81.2101 14.0625 78.225 14.0625 74.6875Z" fill="white"/>
</svg>
