<svg width="512" height="512" viewBox="0 0 512 512" fill="none" xmlns="http://www.w3.org/2000/svg">
<path d="M166.31 39.0617C215.992 -9.02057 295.008 -9.02057 344.69 39.0617C359.892 53.7745 378.518 64.4966 398.899 70.2671C465.503 89.1255 505.011 157.354 488.089 224.295C482.911 244.778 482.911 266.222 488.089 286.705C505.011 353.646 465.503 421.874 398.899 440.733C378.518 446.503 359.892 457.225 344.69 471.938C295.008 520.021 215.992 520.021 166.31 471.938C151.108 457.225 132.482 446.503 112.101 440.733C45.4968 421.874 5.98892 353.646 22.9111 286.705C28.0892 266.222 28.0892 244.778 22.9111 224.295C5.98892 157.354 45.4968 89.1255 112.101 70.2671C132.482 64.4966 151.108 53.7745 166.31 39.0617Z" fill="white"/>
</svg>
