<svg width="512" height="512" viewBox="0 0 512 512" fill="none" xmlns="http://www.w3.org/2000/svg">
<g clip-path="url(#clip0_73_2)">
<path d="M394.325 62.0989C410.248 63.181 418.21 63.722 424.646 66.5365C433.957 70.6088 441.391 78.0426 445.464 87.3544C448.278 93.7897 448.819 101.752 449.901 117.675L452.37 154.014C452.808 160.454 453.027 163.674 453.727 166.75C454.739 171.195 456.496 175.437 458.923 179.295C460.603 181.965 462.726 184.397 466.97 189.26L490.919 216.702C501.414 228.726 506.661 234.739 509.221 241.28C512.926 250.744 512.926 261.256 509.221 270.72C506.661 277.261 501.414 283.274 490.919 295.298L466.97 322.74C462.726 327.603 460.603 330.035 458.923 332.705C456.496 336.563 454.739 340.805 453.727 345.25C453.027 348.326 452.808 351.546 452.37 357.986L449.901 394.325C448.819 410.248 448.278 418.21 445.464 424.646C441.391 433.957 433.957 441.391 424.646 445.464C418.21 448.278 410.248 448.819 394.325 449.901L357.986 452.37C351.546 452.808 348.326 453.027 345.25 453.727C340.805 454.739 336.563 456.496 332.705 458.923C330.035 460.603 327.603 462.726 322.74 466.97L295.298 490.919C283.274 501.414 277.261 506.661 270.72 509.221C261.256 512.926 250.744 512.926 241.28 509.221C234.739 506.661 228.726 501.414 216.702 490.919L189.26 466.97C184.397 462.726 181.965 460.603 179.295 458.923C175.437 456.496 171.195 454.739 166.75 453.727C163.674 453.027 160.454 452.808 154.014 452.371L117.675 449.901C101.752 448.819 93.7897 448.278 87.3544 445.464C78.0426 441.391 70.6088 433.957 66.5365 424.646C63.722 418.21 63.181 410.248 62.0989 394.325L59.6295 357.986C59.1918 351.546 58.973 348.326 58.2729 345.25C57.2613 340.805 55.5045 336.563 53.0768 332.705C51.3967 330.035 49.2745 327.603 45.03 322.74L21.0809 295.298C10.5863 283.274 5.33899 277.261 2.77859 270.72C-0.9262 261.256 -0.926198 250.744 2.7786 241.28C5.33899 234.739 10.5863 228.726 21.0809 216.702L45.03 189.26C49.2745 184.397 51.3967 181.965 53.0768 179.295C55.5045 175.437 57.2613 171.195 58.2729 166.75C58.973 163.674 59.1918 160.454 59.6295 154.014L62.0989 117.675C63.181 101.752 63.722 93.7897 66.5365 87.3544C70.6088 78.0426 78.0426 70.6088 87.3544 66.5365C93.7898 63.722 101.752 63.181 117.675 62.0989L154.014 59.6295C160.454 59.1919 163.674 58.973 166.75 58.2729C171.195 57.2613 175.437 55.5045 179.295 53.0768C181.965 51.3967 184.397 49.2745 189.26 45.03L216.702 21.0809C228.726 10.5863 234.739 5.33899 241.28 2.7786C250.744 -0.926199 261.256 -0.926199 270.72 2.7786C277.261 5.33899 283.274 10.5863 295.298 21.0809L322.74 45.03C327.603 49.2745 330.035 51.3967 332.705 53.0768C336.563 55.5045 340.805 57.2613 345.25 58.2729C348.326 58.973 351.546 59.1919 357.986 59.6295L394.325 62.0989Z" fill="white"/>
</g>
<defs>
<clipPath id="clip0_73_2">
<rect width="512" height="512" fill="white"/>
</clipPath>
</defs>
</svg>
