<svg width="512" height="512" viewBox="0 0 512 512" fill="none" xmlns="http://www.w3.org/2000/svg">
<g clip-path="url(#clip0_73_8)">
<path d="M218.76 21.099C235.617 -7.03296 276.383 -7.03301 293.24 21.0989L312.198 52.7355C322.029 69.1418 341.439 77.1816 359.992 72.5323L395.767 63.567C427.58 55.5949 456.405 84.4203 448.433 116.233L439.468 152.008C434.818 170.561 442.858 189.971 459.264 199.802L490.901 218.76C519.033 235.617 519.033 276.383 490.901 293.24L459.264 312.198C442.858 322.029 434.818 341.439 439.468 359.992L448.433 395.767C456.405 427.58 427.58 456.405 395.767 448.433L359.992 439.468C341.439 434.818 322.029 442.858 312.198 459.264L293.24 490.901C276.383 519.033 235.617 519.033 218.76 490.901L199.802 459.264C189.971 442.858 170.561 434.818 152.008 439.468L116.233 448.433C84.4204 456.405 55.5949 427.58 63.567 395.767L72.5323 359.992C77.1816 341.439 69.1418 322.029 52.7355 312.198L21.099 293.24C-7.03296 276.383 -7.03301 235.617 21.0989 218.76L52.7355 199.802C69.1418 189.971 77.1816 170.561 72.5323 152.008L63.567 116.233C55.5949 84.4204 84.4203 55.5948 116.233 63.567L152.008 72.5323C170.561 77.1816 189.971 69.1418 199.802 52.7355L218.76 21.099Z" fill="white"/>
</g>
<defs>
<clipPath id="clip0_73_8">
<rect width="512" height="512" fill="white"/>
</clipPath>
</defs>
</svg>
