<svg width="512" height="512" viewBox="0 0 512 512" fill="none" xmlns="http://www.w3.org/2000/svg">
<path d="M203.025 35.1504C205.655 33.0024 206.971 31.9284 208.172 31.0217C236.464 9.65944 275.536 9.65944 303.828 31.0217C305.029 31.9284 306.345 33.0024 308.975 35.1504C310.15 36.1092 310.737 36.5886 311.318 37.045C324.633 47.5083 340.957 53.4377 357.896 53.9633C358.635 53.9862 359.394 53.9956 360.911 54.0144C364.31 54.0566 366.009 54.0777 367.513 54.1534C402.947 55.9376 432.877 81.0003 440.791 115.514C441.126 116.978 441.442 118.645 442.074 121.978C442.356 123.466 442.497 124.21 442.648 124.932C446.108 141.488 454.794 156.502 467.432 167.77C467.983 168.262 468.558 168.756 469.708 169.743C472.285 171.956 473.573 173.062 474.677 174.085C500.671 198.181 507.455 236.579 491.287 268.094C490.601 269.432 489.77 270.911 488.107 273.87C487.364 275.19 486.993 275.851 486.644 276.501C478.63 291.403 475.613 308.476 478.036 325.215C478.142 325.945 478.264 326.692 478.509 328.186C479.058 331.534 479.332 333.208 479.519 334.699C483.911 369.832 464.375 403.599 431.69 417.369C430.303 417.954 428.713 418.554 425.534 419.753C424.115 420.289 423.405 420.557 422.719 420.83C406.981 427.106 393.673 438.249 384.747 452.626C384.358 453.253 383.971 453.904 383.196 455.206C381.46 458.123 380.592 459.581 379.774 460.843C360.509 490.573 323.794 503.909 289.886 493.492C288.447 493.05 286.843 492.489 283.634 491.369C282.202 490.869 281.486 490.619 280.784 490.388C264.686 485.1 247.314 485.1 231.216 490.388C230.514 490.619 229.798 490.869 228.366 491.369C225.157 492.489 223.553 493.05 222.114 493.492C188.206 503.909 151.491 490.573 132.226 460.843C131.408 459.581 130.54 458.123 128.804 455.206C128.029 453.904 127.642 453.253 127.253 452.626C118.327 438.249 105.019 427.106 89.2814 420.83C88.595 420.557 87.8854 420.289 86.4661 419.753C83.2866 418.554 81.6969 417.954 80.3097 417.369C47.6248 403.599 28.0892 369.832 32.4813 334.699C32.6678 333.208 32.9421 331.534 33.4907 328.186C33.7356 326.692 33.858 325.945 33.9637 325.215C36.3865 308.476 33.3699 291.403 25.3563 276.501C25.0068 275.851 24.6356 275.19 23.8933 273.87C22.2305 270.911 21.399 269.432 20.7128 268.094C4.54461 236.579 11.3292 198.181 37.3234 174.085C38.4267 173.062 39.715 171.956 42.2915 169.743C43.4417 168.756 44.0168 168.262 44.568 167.77C57.2057 156.502 65.8918 141.488 69.3519 124.932C69.5028 124.21 69.6439 123.466 69.9259 121.978C70.5577 118.645 70.8736 116.978 71.2095 115.513C79.1232 81.0003 109.053 55.9376 144.487 54.1534C145.991 54.0777 147.69 54.0566 151.089 54.0144C152.606 53.9956 153.365 53.9862 154.104 53.9633C171.043 53.4377 187.367 47.5083 200.682 37.045C201.263 36.5886 201.85 36.1092 203.025 35.1504Z" fill="white"/>
</svg>
