<svg width="100" height="100" viewBox="0 0 100 100" fill="none" xmlns="http://www.w3.org/2000/svg">
<path d="M37.4159 77.9205L33.6821 71.5963L26.5539 70.0489C25.5129 69.8247 24.6643 69.2752 24.0081 68.4006C23.3518 67.526 23.069 66.5505 23.1595 65.474L23.9062 58.2752L19.0862 52.7584C18.3621 51.9511 18 51.0316 18 50C18 48.9684 18.3621 48.0489 19.0862 47.2416L23.9062 41.7248L23.1595 34.526C23.069 33.4495 23.3518 32.474 24.0081 31.5994C24.6643 30.7248 25.5129 30.1753 26.5539 29.9511L33.6821 28.4037L37.4159 22.0795C37.9591 21.1825 38.7398 20.5657 39.7581 20.2294C40.7764 19.893 41.7834 19.9266 42.7791 20.3303L49.5 23.156L56.2209 20.3303C57.2166 19.9266 58.2236 19.893 59.2419 20.2294C60.2602 20.5657 61.0409 21.1825 61.5841 22.0795L65.3179 28.4037L72.4461 29.9511C73.4871 30.1753 74.3357 30.7248 74.9919 31.5994C75.6482 32.474 75.931 33.4495 75.8405 34.526L75.0938 41.7248L79.9138 47.2416C80.6379 48.0489 81 48.9684 81 50C81 51.0316 80.6379 51.9511 79.9138 52.7584L75.0938 58.2752L75.8405 65.474C75.931 66.5505 75.6482 67.526 74.9919 68.4006C74.3357 69.2752 73.4871 69.8247 72.4461 70.0489L65.3179 71.5963L61.5841 77.9205C61.0409 78.8175 60.2602 79.4343 59.2419 79.7706C58.2236 80.107 57.2166 80.0734 56.2209 79.6697L49.5 76.844L42.7791 79.6697C41.7834 80.0734 40.7764 80.107 39.7581 79.7706C38.7398 79.4343 37.9591 78.8175 37.4159 77.9205Z" fill="white"/>
</svg>
